<?xml version="1.0" encoding="UTF-8"?>
<svg xmlns="http://www.w3.org/2000/svg" xmlns:xlink="http://www.w3.org/1999/xlink" width="300px" height="122px" viewBox="0 0 300 122" version="1.1">
<g id="surface1">
    <path style=" stroke:none;fill-rule:nonzero;fill:rgb(0%,0%,0%);fill-opacity:1;" d="M 90.75 26.925781 C 90.644531 28.109375 90.910156 28.429688 90.644531 31.171875 C 90.589844 31.925781 88.230469 31.011719 88.179688 31.601562 C 88.179688 32.085938 88.179688 32.675781 88.179688 33.269531 C 88.179688 34.933594 88.019531 36.601562 87.589844 38.265625 C 87 40.738281 85.929688 44.070312 84.105469 46.113281 C 82.5 48.261719 78.214844 49.929688 73.714844 49.929688 C 72.105469 49.929688 70.605469 49.660156 69.214844 49.230469 C 69 49.175781 67.125 50.84375 67.820312 52.722656 C 68.304688 53.90625 69 54.820312 69.804688 54.820312 C 82.339844 55.195312 85.070312 55.570312 86.355469 56.269531 C 89.945312 58.097656 89.730469 59.28125 89.570312 60.085938 C 88.980469 62.667969 83.304688 66.105469 84.269531 63.742188 C 85.125 61.589844 83.730469 60.03125 81.269531 59.441406 C 78.964844 58.902344 77.035156 58.6875 75.320312 58.902344 C 74.144531 59.066406 72.589844 58.902344 71.945312 59.871094 C 66.054688 68.578125 62.730469 71.964844 61.769531 72.878906 C 55.230469 79.328125 51.855469 81.53125 49.605469 82.929688 C 42.480469 87.441406 39.214844 88.25 34.394531 88.730469 C 24.695312 89.699219 21.535156 88.300781 19.714844 87.820312 C 7.714844 84.917969 -2.570312 76.800781 5.785156 76.476562 C 8.355469 76.371094 11.089844 79.757812 15.480469 82.175781 C 17.785156 83.410156 18.804688 83.625 21.320312 84.164062 C 25.875 85.238281 30.695312 85.238281 34.820312 84.703125 C 41.144531 83.894531 43.179688 82.335938 45.75 81.101562 C 51.214844 78.359375 56.195312 73.039062 59.304688 69.867188 C 63.105469 65.945312 65.679688 61.109375 66.804688 58.957031 C 67.5 57.613281 63.75 56.863281 62.304688 54.605469 C 60.160156 51.273438 66.480469 47.726562 65.894531 47.296875 C 63.214844 45.253906 61.554688 42.136719 61.554688 38.535156 C 61.554688 30.6875 67.929688 26.28125 74.570312 26.28125 C 79.605469 26.28125 83.945312 26.820312 83.945312 26.820312 Z M 83.355469 38.320312 C 83.355469 37.621094 82.929688 34.71875 82.660156 34.128906 C 81.695312 31.710938 79.125 29.667969 75.320312 29.667969 C 70.285156 29.667969 66.75 33.054688 66.75 38.375 C 66.75 42.886719 69.589844 46.648438 75.269531 46.648438 C 78.480469 46.648438 81.429688 45.039062 82.554688 42.351562 C 82.875 41.652344 83.304688 40.199219 83.304688 39.503906 Z M 83.355469 38.320312 "/>
    <path style=" stroke:none;fill-rule:nonzero;fill:rgb(0%,0%,0%);fill-opacity:1;" d="M 114.054688 59.496094 C 112.929688 59.496094 109.714844 59.496094 108.695312 59.496094 C 97.445312 59.496094 98.089844 59.496094 98.089844 59.496094 C 98.089844 58.097656 98.035156 57.613281 97.980469 54.65625 C 97.980469 54.65625 103.660156 54.710938 103.445312 54.441406 C 102.964844 53.746094 101.570312 53.207031 100.929688 51.164062 C 97.820312 41.222656 106.820312 34.773438 119.894531 36.976562 L 120.375 36.386719 C 121.019531 35.578125 121.230469 34.503906 120.804688 33.589844 C 120.054688 32.03125 117.964844 31.386719 112.820312 31.816406 C 100.660156 32.835938 99.429688 27.300781 99.214844 26.820312 L 102.855469 23.109375 C 108.804688 29.667969 109.230469 28.054688 114.375 27.894531 C 122.785156 27.625 127.605469 27.894531 126.910156 33.375 C 126.75 34.773438 125.625 35.632812 124.5 37.03125 C 123.804688 37.835938 123.855469 39.070312 124.605469 39.824219 L 125.195312 40.414062 C 125.679688 40.898438 127.875 43.695312 127.554688 47.941406 C 126.855469 59.496094 116.089844 59.496094 114.054688 59.496094 Z M 115.875 40.738281 C 109.019531 40.308594 106.125 42.886719 106.125 48.15625 C 106.125 52.292969 110.144531 55.195312 113.355469 55.195312 C 117.855469 55.195312 120.535156 53.960938 121.714844 51.058594 C 124.660156 43.910156 118.980469 40.898438 115.875 40.738281 Z M 115.875 40.738281 "/>
    <path style=" stroke:none;fill-rule:nonzero;fill:rgb(0%,0%,0%);fill-opacity:1;" d="M 135.589844 14.296875 L 141.644531 14.296875 L 141.644531 59.496094 L 135.589844 59.496094 Z M 135.589844 14.296875 "/>
    <path style=" stroke:none;fill-rule:nonzero;fill:rgb(0%,0%,0%);fill-opacity:1;" d="M 151.875 59.496094 L 151.875 28.644531 L 157.929688 28.644531 L 157.929688 59.441406 L 151.875 59.441406 Z M 151.875 59.496094 "/>
    <path style=" stroke:none;fill-rule:nonzero;fill:rgb(0%,0%,0%);fill-opacity:1;" d="M 191.839844 57.667969 C 190.230469 58.421875 186.75 59.441406 182.25 59.441406 C 172.179688 59.441406 165.589844 53.152344 165.589844 43.695312 C 165.589844 34.179688 172.605469 27.355469 183.535156 27.355469 C 187.125 27.355469 190.285156 28.164062 191.945312 28.96875 L 190.554688 33.320312 C 189.105469 32.570312 186.804688 31.871094 183.535156 31.871094 C 175.875 31.871094 171.75 37.082031 171.75 43.53125 C 171.75 50.679688 176.730469 55.035156 183.375 55.035156 C 186.804688 55.035156 189.105469 54.226562 190.820312 53.53125 Z M 191.839844 57.667969 "/>
    <path style=" stroke:none;fill-rule:nonzero;fill:rgb(0%,0%,0%);fill-opacity:1;" d="M 196.605469 59.496094 L 196.605469 28.644531 L 202.660156 28.644531 L 202.660156 59.441406 L 196.605469 59.441406 Z M 196.605469 59.496094 "/>
    <path style=" stroke:none;fill-rule:nonzero;fill:rgb(0%,0%,0%);fill-opacity:1;" d="M 226.070312 59.441406 C 224.945312 59.441406 221.730469 59.441406 220.714844 59.441406 C 209.464844 59.441406 210.105469 59.441406 210.105469 59.441406 C 210.105469 58.042969 210.054688 57.558594 210 54.605469 C 210 54.605469 215.679688 54.65625 215.464844 54.390625 C 214.980469 53.691406 213.589844 53.152344 212.945312 51.109375 C 209.839844 41.167969 218.839844 34.71875 231.910156 36.921875 L 232.394531 36.332031 C 233.035156 35.523438 233.25 34.449219 232.820312 33.535156 C 232.070312 31.976562 229.980469 31.332031 224.839844 31.761719 C 212.679688 32.785156 211.445312 27.25 211.230469 26.765625 L 214.875 23.054688 C 220.820312 29.613281 221.25 28 226.394531 27.839844 C 234.804688 27.570312 239.625 27.839844 238.929688 33.320312 C 238.769531 34.71875 237.644531 35.578125 236.519531 36.976562 C 235.820312 37.78125 235.875 39.019531 236.625 39.769531 L 237.214844 40.363281 C 237.695312 40.847656 239.894531 43.640625 239.570312 47.886719 C 238.875 59.496094 228.054688 59.496094 226.070312 59.441406 Z M 227.839844 40.683594 C 220.980469 40.253906 218.089844 42.835938 218.089844 48.101562 C 218.089844 52.238281 222.105469 55.140625 225.320312 55.140625 C 229.820312 55.140625 232.5 53.90625 233.679688 51.003906 C 236.625 43.855469 230.945312 40.898438 227.839844 40.683594 Z M 227.839844 40.683594 "/>
</g>
</svg>
